<?xml version="1.0" standalone="no"?><svg xmlns:xlink="http://www.w3.org/1999/xlink" xmlns="http://www.w3.org/2000/svg" viewBox="0 0 1000 562.5041915364495" preserveAspectRatio="xMaxYMax slice"><g transform="scale(0.8383072899201931)"><rect x="0" y="0" width="1192.888888888889" height="671" fill="#ffffff"/><rect x="447.33333333333337" y="0" width="74.55555555555556" height="74.55555555555556" fill="#ffffff"/><path d="M 484.61 0 A 37.28 37.28 0 0 1  521.89 37.28 L 484.61 0 A 37.28 37.28 0 0 0 521.89 37.28" fill="#dbdbdb"/><path d="M 484.61 37.28 A 37.28 37.28 0 0 1  521.89 74.56 L 484.61 37.28 A 37.28 37.28 0 0 0 521.89 74.56" fill="#424242"/><rect x="671" y="0" width="74.55555555555556" height="74.55555555555556" fill="#ffffff"/><path d="M 671 74.56 A 37.28 37.28 0 0 1  708.28 37.28 L 671 74.56 A 37.28 37.28 0 0 0 708.28 37.28" fill="#a8f3f3"/><path d="M 708.28 74.56 A 37.28 37.28 0 0 1  745.56 37.28 L 708.28 74.56 A 37.28 37.28 0 0 0 745.56 37.28" fill="#b5f4f4"/><rect x="0" y="74.55555555555556" width="74.55555555555556" height="74.55555555555556" fill="#ffffff"/><path d="M 37.28 74.56 A 37.28 37.28 0 0 1  74.56 111.84 L 37.28 74.56 A 37.28 37.28 0 0 0 74.56 111.84" fill="#d7d7d7"/><path d="M 37.28 111.83 A 37.28 37.28 0 0 1  74.56 149.11 L 37.28 111.83 A 37.28 37.28 0 0 0 74.56 149.11" fill="#2e2e2e"/><rect x="596.4444444444445" y="74.55555555555556" width="74.55555555555556" height="74.55555555555556" fill="#ffffff"/><path d="M 633.72 149.11 A 37.28 37.28 0 0 1  671 111.83 L 633.72 149.11 A 37.28 37.28 0 0 0 671 111.83" fill="#b9b9b9"/><rect x="1043.7777777777778" y="74.55555555555556" width="74.55555555555556" height="74.55555555555556" fill="#ffffff"/><path d="M 1081.06 111.84 A 37.28 37.28 0 0 1  1118.34 74.56 L 1081.06 111.84 A 37.28 37.28 0 0 0 1118.34 74.56" fill="#e4e4e4"/><path d="M 1081.06 149.11 A 37.28 37.28 0 0 1  1118.34 111.83 L 1081.06 149.11 A 37.28 37.28 0 0 0 1118.34 111.83" fill="#e5e5e5"/><rect x="1118.3333333333333" y="74.55555555555556" width="74.55555555555556" height="74.55555555555556" fill="#ffffff"/><path d="M 1118.33 111.84 A 37.28 37.28 0 0 1  1155.61 74.56 L 1118.33 111.84 A 37.28 37.28 0 0 0 1155.61 74.56" fill="#dedede"/><path d="M 1155.61 74.56 A 37.28 37.28 0 0 1  1192.8899999999999 111.84 L 1155.61 74.56 A 37.28 37.28 0 0 0 1192.8899999999999 111.84" fill="#a9f3f3"/><path d="M 1155.61 111.83 A 37.28 37.28 0 0 1  1192.8899999999999 149.11 L 1155.61 111.83 A 37.28 37.28 0 0 0 1192.8899999999999 149.11" fill="#f4f4f4"/><rect x="223.66666666666669" y="149.11111111111111" width="74.55555555555556" height="74.55555555555556" fill="#ffffff"/><rect x="671" y="149.11111111111111" width="74.55555555555556" height="74.55555555555556" fill="#ffffff"/><rect x="969.2222222222223" y="149.11111111111111" width="74.55555555555556" height="74.55555555555556" fill="#ffffff"/><path d="M 969.22 186.39000000000001 A 37.28 37.28 0 0 1  1006.5 149.11 L 969.22 186.39000000000001 A 37.28 37.28 0 0 0 1006.5 149.11" fill="#fefffe"/><rect x="74.55555555555556" y="223.66666666666669" width="74.55555555555556" height="74.55555555555556" fill="#ffffff"/><path d="M 111.83 260.95 A 37.28 37.28 0 0 1  149.11 223.67 L 111.83 260.95 A 37.28 37.28 0 0 0 149.11 223.67" fill="#6d6d6d"/><rect x="298.22222222222223" y="223.66666666666669" width="74.55555555555556" height="74.55555555555556" fill="#ffffff"/><rect x="372.77777777777777" y="223.66666666666669" width="74.55555555555556" height="74.55555555555556" fill="#ffffff"/><path d="M 372.78 223.67 A 37.28 37.28 0 0 1  410.05999999999995 260.95 L 372.78 223.67 A 37.28 37.28 0 0 0 410.05999999999995 260.95" fill="#7ff67c"/><path d="M 410.06 223.67 A 37.28 37.28 0 0 1  447.34000000000003 260.95 L 410.06 223.67 A 37.28 37.28 0 0 0 447.34000000000003 260.95" fill="#dcdcdc"/><rect x="521.8888888888889" y="223.66666666666669" width="74.55555555555556" height="74.55555555555556" fill="#ffffff"/><rect x="894.6666666666667" y="223.66666666666669" width="74.55555555555556" height="74.55555555555556" fill="#ffffff"/><path d="M 931.94 260.94 A 37.28 37.28 0 0 1  969.22 298.22 L 931.94 260.94 A 37.28 37.28 0 0 0 969.22 298.22" fill="#3d3d3d"/><rect x="1043.7777777777778" y="223.66666666666669" width="74.55555555555556" height="74.55555555555556" fill="#ffffff"/><path d="M 1081.06 298.22 A 37.28 37.28 0 0 1  1118.34 260.94 L 1081.06 298.22 A 37.28 37.28 0 0 0 1118.34 260.94" fill="#f7f7f7"/><rect x="298.22222222222223" y="298.22222222222223" width="74.55555555555556" height="74.55555555555556" fill="#ffffff"/><rect x="596.4444444444445" y="298.22222222222223" width="74.55555555555556" height="74.55555555555556" fill="#ffffff"/><path d="M 596.44 335.5 A 37.28 37.28 0 0 1  633.72 298.22 L 596.44 335.5 A 37.28 37.28 0 0 0 633.72 298.22" fill="#f6fefe"/><rect x="671" y="298.22222222222223" width="74.55555555555556" height="74.55555555555556" fill="#ffffff"/><path d="M 671 298.22 A 37.28 37.28 0 0 1  708.28 335.5 L 671 298.22 A 37.28 37.28 0 0 0 708.28 335.5" fill="#81f77d"/><rect x="894.6666666666667" y="298.22222222222223" width="74.55555555555556" height="74.55555555555556" fill="#ffffff"/><path d="M 894.67 335.5 A 37.28 37.28 0 0 1  931.9499999999999 298.22 L 894.67 335.5 A 37.28 37.28 0 0 0 931.9499999999999 298.22" fill="#e3e3e3"/><rect x="969.2222222222223" y="298.22222222222223" width="74.55555555555556" height="74.55555555555556" fill="#ffffff"/><rect x="0" y="372.77777777777777" width="74.55555555555556" height="74.55555555555556" fill="#ffffff"/><rect x="149.11111111111111" y="372.77777777777777" width="74.55555555555556" height="74.55555555555556" fill="#ffffff"/><rect x="372.77777777777777" y="372.77777777777777" width="74.55555555555556" height="74.55555555555556" fill="#ffffff"/><rect x="447.33333333333337" y="372.77777777777777" width="74.55555555555556" height="74.55555555555556" fill="#ffffff"/><path d="M 447.33 372.78 A 37.28 37.28 0 0 1  484.61 410.05999999999995 L 447.33 372.78 A 37.28 37.28 0 0 0 484.61 410.05999999999995" fill="#8a8a8a"/><rect x="521.8888888888889" y="372.77777777777777" width="74.55555555555556" height="74.55555555555556" fill="#ffffff"/><path d="M 521.89 410.05999999999995 A 37.28 37.28 0 0 1  559.17 372.78 L 521.89 410.05999999999995 A 37.28 37.28 0 0 0 559.17 372.78" fill="#dbfafa"/><path d="M 559.17 447.34000000000003 A 37.28 37.28 0 0 1  596.4499999999999 410.06 L 559.17 447.34000000000003 A 37.28 37.28 0 0 0 596.4499999999999 410.06" fill="#cccccc"/><rect x="894.6666666666667" y="372.77777777777777" width="74.55555555555556" height="74.55555555555556" fill="#ffffff"/><path d="M 931.94 372.78 A 37.28 37.28 0 0 1  969.22 410.05999999999995 L 931.94 372.78 A 37.28 37.28 0 0 0 969.22 410.05999999999995" fill="#e2e2e2"/><path d="M 894.67 410.06 A 37.28 37.28 0 0 1  931.9499999999999 447.34000000000003 L 894.67 410.06 A 37.28 37.28 0 0 0 931.9499999999999 447.34000000000003" fill="#838383"/><rect x="0" y="447.33333333333337" width="74.55555555555556" height="74.55555555555556" fill="#ffffff"/><path d="M 37.28 447.33 A 37.28 37.28 0 0 1  74.56 484.61 L 37.28 447.33 A 37.28 37.28 0 0 0 74.56 484.61" fill="#484848"/><path d="M 0 484.61 A 37.28 37.28 0 0 1  37.28 521.89 L 0 484.61 A 37.28 37.28 0 0 0 37.28 521.89" fill="#f7f7f7"/><rect x="74.55555555555556" y="447.33333333333337" width="74.55555555555556" height="74.55555555555556" fill="#ffffff"/><rect x="298.22222222222223" y="447.33333333333337" width="74.55555555555556" height="74.55555555555556" fill="#ffffff"/><path d="M 298.22 447.33 A 37.28 37.28 0 0 1  335.5 484.61 L 298.22 447.33 A 37.28 37.28 0 0 0 335.5 484.61" fill="#fafafa"/><path d="M 335.5 447.33 A 37.28 37.28 0 0 1  372.78 484.61 L 335.5 447.33 A 37.28 37.28 0 0 0 372.78 484.61" fill="#939393"/><rect x="372.77777777777777" y="447.33333333333337" width="74.55555555555556" height="74.55555555555556" fill="#ffffff"/><path d="M 410.06 484.61 A 37.28 37.28 0 0 1  447.34000000000003 447.33 L 410.06 484.61 A 37.28 37.28 0 0 0 447.34000000000003 447.33" fill="#d6fcd5"/><rect x="596.4444444444445" y="447.33333333333337" width="74.55555555555556" height="74.55555555555556" fill="#ffffff"/><rect x="671" y="447.33333333333337" width="74.55555555555556" height="74.55555555555556" fill="#ffffff"/><path d="M 708.28 447.33 A 37.28 37.28 0 0 1  745.56 484.61 L 708.28 447.33 A 37.28 37.28 0 0 0 745.56 484.61" fill="#b1faaf"/><rect x="820.1111111111111" y="447.33333333333337" width="74.55555555555556" height="74.55555555555556" fill="#ffffff"/><path d="M 820.11 447.33 A 37.28 37.28 0 0 1  857.39 484.61 L 820.11 447.33 A 37.28 37.28 0 0 0 857.39 484.61" fill="#fdfdfd"/><path d="M 857.39 521.89 A 37.28 37.28 0 0 1  894.67 484.61 L 857.39 521.89 A 37.28 37.28 0 0 0 894.67 484.61" fill="#515151"/><rect x="1043.7777777777778" y="447.33333333333337" width="74.55555555555556" height="74.55555555555556" fill="#ffffff"/><path d="M 1043.78 447.33 A 37.28 37.28 0 0 1  1081.06 484.61 L 1043.78 447.33 A 37.28 37.28 0 0 0 1081.06 484.61" fill="#f4fef3"/><path d="M 1081.06 447.33 A 37.28 37.28 0 0 1  1118.34 484.61 L 1081.06 447.33 A 37.28 37.28 0 0 0 1118.34 484.61" fill="#b8b8b8"/><path d="M 1043.78 521.89 A 37.28 37.28 0 0 1  1081.06 484.61 L 1043.78 521.89 A 37.28 37.28 0 0 0 1081.06 484.61" fill="#e6e6e6"/><rect x="74.55555555555556" y="521.8888888888889" width="74.55555555555556" height="74.55555555555556" fill="#ffffff"/><rect x="149.11111111111111" y="521.8888888888889" width="74.55555555555556" height="74.55555555555556" fill="#ffffff"/><path d="M 149.11 521.89 A 37.28 37.28 0 0 1  186.39000000000001 559.17 L 149.11 521.89 A 37.28 37.28 0 0 0 186.39000000000001 559.17" fill="#d1f8f8"/><path d="M 149.11 559.17 A 37.28 37.28 0 0 1  186.39000000000001 596.4499999999999 L 149.11 559.17 A 37.28 37.28 0 0 0 186.39000000000001 596.4499999999999" fill="#f1fdfd"/><path d="M 186.39 596.4499999999999 A 37.28 37.28 0 0 1  223.67 559.17 L 186.39 596.4499999999999 A 37.28 37.28 0 0 0 223.67 559.17" fill="#e3e3e3"/><rect x="298.22222222222223" y="521.8888888888889" width="74.55555555555556" height="74.55555555555556" fill="#ffffff"/><path d="M 335.5 596.4499999999999 A 37.28 37.28 0 0 1  372.78 559.17 L 335.5 596.4499999999999 A 37.28 37.28 0 0 0 372.78 559.17" fill="#bdbdbd"/><rect x="372.77777777777777" y="521.8888888888889" width="74.55555555555556" height="74.55555555555556" fill="#ffffff"/><path d="M 372.78 521.89 A 37.28 37.28 0 0 1  410.05999999999995 559.17 L 372.78 521.89 A 37.28 37.28 0 0 0 410.05999999999995 559.17" fill="#656565"/><rect x="745.5555555555555" y="521.8888888888889" width="74.55555555555556" height="74.55555555555556" fill="#ffffff"/><path d="M 745.56 559.17 A 37.28 37.28 0 0 1  782.8399999999999 521.89 L 745.56 559.17 A 37.28 37.28 0 0 0 782.8399999999999 521.89" fill="#7d7d7d"/><path d="M 782.83 559.17 A 37.28 37.28 0 0 1  820.11 521.89 L 782.83 559.17 A 37.28 37.28 0 0 0 820.11 521.89" fill="#dddddd"/><rect x="820.1111111111111" y="521.8888888888889" width="74.55555555555556" height="74.55555555555556" fill="#ffffff"/><path d="M 820.11 559.17 A 37.28 37.28 0 0 1  857.39 596.4499999999999 L 820.11 559.17 A 37.28 37.28 0 0 0 857.39 596.4499999999999" fill="#ececec"/><rect x="894.6666666666667" y="521.8888888888889" width="74.55555555555556" height="74.55555555555556" fill="#ffffff"/><path d="M 894.67 559.17 A 37.28 37.28 0 0 1  931.9499999999999 596.4499999999999 L 894.67 559.17 A 37.28 37.28 0 0 0 931.9499999999999 596.4499999999999" fill="#bdbdbd"/><rect x="1043.7777777777778" y="521.8888888888889" width="74.55555555555556" height="74.55555555555556" fill="#ffffff"/><path d="M 1043.78 559.17 A 37.28 37.28 0 0 1  1081.06 596.4499999999999 L 1043.78 559.17 A 37.28 37.28 0 0 0 1081.06 596.4499999999999" fill="#f2f2f2"/><rect x="74.55555555555556" y="596.4444444444445" width="74.55555555555556" height="74.55555555555556" fill="#ffffff"/><path d="M 74.56 596.44 A 37.28 37.28 0 0 1  111.84 633.72 L 74.56 596.44 A 37.28 37.28 0 0 0 111.84 633.72" fill="#f9fff9"/><path d="M 111.83 633.72 A 37.28 37.28 0 0 1  149.11 596.44 L 111.83 633.72 A 37.28 37.28 0 0 0 149.11 596.44" fill="#eaeaea"/><path d="M 74.56 671 A 37.28 37.28 0 0 1  111.84 633.72 L 74.56 671 A 37.28 37.28 0 0 0 111.84 633.72" fill="#fdfdfd"/><path d="M 111.83 671 A 37.28 37.28 0 0 1  149.11 633.72 L 111.83 671 A 37.28 37.28 0 0 0 149.11 633.72" fill="#e1e1e1"/><rect x="149.11111111111111" y="596.4444444444445" width="74.55555555555556" height="74.55555555555556" fill="#ffffff"/><path d="M 149.11 633.72 A 37.28 37.28 0 0 1  186.39000000000001 671 L 149.11 633.72 A 37.28 37.28 0 0 0 186.39000000000001 671" fill="#c4f7f7"/><path d="M 186.39 633.72 A 37.28 37.28 0 0 1  223.67 671 L 186.39 633.72 A 37.28 37.28 0 0 0 223.67 671" fill="#bfbfbf"/><rect x="447.33333333333337" y="596.4444444444445" width="74.55555555555556" height="74.55555555555556" fill="#ffffff"/><path d="M 447.33 633.72 A 37.28 37.28 0 0 1  484.61 596.44 L 447.33 633.72 A 37.28 37.28 0 0 0 484.61 596.44" fill="#898989"/><path d="M 447.33 671 A 37.28 37.28 0 0 1  484.61 633.72 L 447.33 671 A 37.28 37.28 0 0 0 484.61 633.72" fill="#444444"/></g></svg>